<svg width="20" height="20" viewBox="0 0 20 20" fill="none" xmlns="http://www.w3.org/2000/svg">
<path fill-rule="evenodd" clip-rule="evenodd" d="M9.26857 0.0771624C9.71857 0.277162 9.92143 0.805734 9.72143 1.25573C9.48857 1.77716 9.26857 2.59573 9.09714 3.63002C12.1615 3.53627 15.2126 3.18648 18.2186 2.58431C18.3336 2.56142 18.452 2.56141 18.567 2.58427C18.682 2.60713 18.7913 2.65242 18.8888 2.71756C18.9863 2.78269 19.0701 2.86639 19.1352 2.96388C19.2004 3.06137 19.2457 3.17073 19.2686 3.28573C19.2915 3.40073 19.2915 3.51912 19.2686 3.63412C19.2457 3.74913 19.2005 3.8585 19.1353 3.956C19.0702 4.05351 18.9865 4.13722 18.889 4.20238C18.7915 4.26753 18.6821 4.31285 18.5671 4.33573C15.3734 4.97531 12.1304 5.33855 8.87429 5.42145C8.7767 6.52621 8.74046 7.63553 8.76572 8.7443C9.89429 8.58002 10.9957 8.58288 11.9414 8.75859C12.4405 8.85097 12.9233 8.97192 13.39 9.12145C13.4767 8.7224 13.51 8.36764 13.49 8.05716C13.484 7.82694 13.5672 7.60329 13.7222 7.43296C13.8772 7.26262 14.092 7.15877 14.3218 7.14309C14.5516 7.12742 14.7785 7.20114 14.9552 7.34884C15.1319 7.49655 15.2447 7.70682 15.27 7.93573C15.3022 8.57067 15.2308 9.20661 15.0586 9.81859C16.5114 10.5843 17.65 11.6557 18.24 12.9257C18.4962 13.4579 18.6408 14.0368 18.6649 14.627C18.6889 15.2171 18.592 15.8059 18.38 16.3572C17.9371 17.5172 17.0029 18.58 15.5943 19.4929C15.3954 19.6217 15.1534 19.6662 14.9217 19.6167C14.69 19.5671 14.4874 19.4275 14.3586 19.2286C14.2298 19.0297 14.1852 18.7877 14.2348 18.556C14.2844 18.3243 14.4239 18.1217 14.6229 17.9929C15.8157 17.2214 16.4414 16.4286 16.7114 15.7214C16.8384 15.3932 16.8959 15.0421 16.8801 14.6904C16.8644 14.3388 16.7758 13.9942 16.62 13.6786C16.2514 12.8843 15.4914 12.1114 14.43 11.51C13.9257 12.5814 13.2229 13.6672 12.3986 14.6643C11.7986 15.3929 11.1157 16.0929 10.3786 16.7114C10.75 17.4272 11.1829 18.0086 11.6757 18.4286C11.8557 18.5826 11.9671 18.8018 11.9855 19.038C12.0038 19.2741 11.9276 19.5079 11.7736 19.6879C11.6196 19.8678 11.4004 19.9793 11.1642 19.9976C10.928 20.016 10.6943 19.9397 10.5143 19.7857C9.88 19.2429 9.35429 18.5529 8.92286 17.7743C7.92429 18.3957 6.86572 18.8372 5.80429 18.9929C4.97572 19.1143 3.98 19.0557 3.11857 18.6886C2.22714 18.3114 1.42572 17.5686 1.25286 16.36C0.820001 13.3343 2.65572 11.2129 4.88143 10.0072C5.55357 9.64806 6.25994 9.35709 6.99 9.13859C6.9503 7.90312 6.98035 6.66639 7.08 5.4343C5.21485 5.41558 3.3521 5.29541 1.5 5.07431C1.27219 5.03764 1.06742 4.9142 0.928624 4.72987C0.789826 4.54554 0.727778 4.31464 0.755488 4.08557C0.783198 3.8565 0.898515 3.64705 1.07726 3.50113C1.25601 3.35522 1.48431 3.28417 1.71429 3.30288C3.56476 3.52383 5.42191 3.63954 7.28572 3.65002C7.47572 2.39431 7.74714 1.29859 8.09 0.53002C8.18625 0.313693 8.36449 0.144456 8.58551 0.0595309C8.80653 -0.025394 9.05223 -0.0190518 9.26857 0.0771624ZM7.10572 10.9772C6.63245 11.1393 6.17329 11.3399 5.73286 11.5772C3.87857 12.5814 2.73286 14.0986 3.02 16.1086C3.08286 16.5486 3.34857 16.8472 3.81572 17.0457C4.31143 17.2557 4.96572 17.3114 5.54429 17.2257C6.39286 17.1029 7.29572 16.7114 8.18 16.1286C8.10667 15.9286 8.03714 15.7243 7.97143 15.5157C7.52857 14.11 7.25143 12.5486 7.10572 10.9772ZM9.66857 14.9586C10.1414 14.5229 10.5971 14.0414 11.0214 13.5272C11.7174 12.6931 12.3107 11.7784 12.7886 10.8029C12.4043 10.6832 12.0131 10.5868 11.6171 10.5143C10.8286 10.3686 9.86 10.3757 8.86 10.5372C8.98857 12.1014 9.25 13.6272 9.66857 14.9586Z" fill="black"/>
</svg>
