<svg width="24" height="24" viewBox="0 0 24 24" fill="none" xmlns="http://www.w3.org/2000/svg">
<path d="M18.375 0H5.625C2.5184 0 0 2.5184 0 5.625V18.375C0 21.4816 2.5184 24 5.625 24H18.375C21.4816 24 24 21.4816 24 18.375V5.625C24 2.5184 21.4816 0 18.375 0Z" fill="black"/>
<path d="M5.3999 16.6912V6.40123C5.3999 6.3312 5.4299 6.29126 5.49993 6.29126C5.6699 6.29126 5.82993 6.29126 6.0599 6.28123C6.2999 6.2712 6.54993 6.2712 6.81993 6.26126C7.08993 6.25123 7.3799 6.25123 7.68993 6.2412C7.99987 6.23126 8.29987 6.23126 8.59987 6.23126C9.4199 6.23126 10.0999 6.3312 10.6599 6.5412C11.1619 6.71172 11.6196 6.99183 11.9999 7.36123C12.3221 7.68458 12.571 8.07334 12.7299 8.50123C12.8799 8.92123 12.9599 9.35126 12.9599 9.80126C12.9599 10.6613 12.7599 11.3713 12.3599 11.9313C11.9599 12.4912 11.3999 12.9112 10.7499 13.1512C10.0699 13.4013 9.31987 13.4913 8.49993 13.4913C8.25993 13.4913 8.0999 13.4913 7.99987 13.4812C7.89984 13.4712 7.75987 13.4712 7.56993 13.4712V16.6812C7.57987 16.7512 7.5299 16.8112 7.45987 16.8213H5.5199C5.43993 16.8213 5.3999 16.7812 5.3999 16.6912ZM7.57987 8.2212V11.5812C7.71993 11.5912 7.84987 11.6013 7.96987 11.6013H8.49993C8.88993 11.6013 9.27993 11.5413 9.64987 11.4213C9.96993 11.3313 10.2499 11.1412 10.4699 10.8912C10.6799 10.6413 10.7799 10.3012 10.7799 9.86126C10.7893 9.54875 10.7095 9.24002 10.5499 8.9712C10.3799 8.71123 10.1399 8.51126 9.84993 8.4012C9.4799 8.2512 9.07987 8.1912 8.6699 8.20123C8.40993 8.20123 8.17987 8.20123 7.98993 8.21126C7.78987 8.20123 7.6499 8.21126 7.57987 8.2212ZM19.1999 10.9713C18.8999 10.8112 18.5799 10.7013 18.2399 10.6312C17.8699 10.5513 17.4999 10.5012 17.1199 10.5012C16.9199 10.4913 16.7099 10.5213 16.5199 10.5712C16.3899 10.6012 16.2799 10.6713 16.2099 10.7712C16.1599 10.8513 16.1299 10.9512 16.1299 11.0412C16.1299 11.1312 16.1699 11.2212 16.2299 11.3013C16.3199 11.4112 16.4399 11.5012 16.5699 11.5713C16.8018 11.6913 17.0387 11.8014 17.2799 11.9013C17.8199 12.0813 18.3399 12.3312 18.8199 12.6312C19.1499 12.8412 19.4199 13.1212 19.6099 13.4613C19.7699 13.7812 19.8499 14.1312 19.8399 14.4912C19.8499 14.9613 19.7099 15.4312 19.4499 15.8212C19.171 16.2204 18.7818 16.5297 18.3299 16.7112C17.8399 16.9212 17.2399 17.0313 16.5199 17.0313C16.0599 17.0313 15.6099 16.9912 15.1599 16.9012C14.8072 16.8403 14.4642 16.7327 14.1399 16.5813C14.0699 16.5412 14.0199 16.4712 14.0299 16.3912V14.6512C14.0299 14.6212 14.0399 14.5812 14.0699 14.5612C14.0999 14.5413 14.1299 14.5512 14.1599 14.5713C14.5499 14.8012 14.9599 14.9613 15.3999 15.0612C15.7799 15.1612 16.1799 15.2112 16.5799 15.2112C16.9599 15.2112 17.2299 15.1612 17.4099 15.0712C17.5699 15.0012 17.6799 14.8312 17.6799 14.6512C17.6799 14.5113 17.5999 14.3812 17.4399 14.2512C17.2799 14.1213 16.9499 13.9713 16.4599 13.7812C15.9572 13.6041 15.4799 13.362 15.0399 13.0612C14.7265 12.8379 14.4669 12.5475 14.2799 12.2112C14.1199 11.8912 14.0399 11.5413 14.0499 11.1912C14.0499 10.7613 14.1699 10.3512 14.3899 9.98126C14.6399 9.58123 15.0099 9.26126 15.4399 9.0612C15.9099 8.8212 16.4999 8.71123 17.2099 8.71123C17.6199 8.71123 18.0399 8.74123 18.4499 8.80123C18.7499 8.84126 19.0399 8.92123 19.3099 9.0312C19.3499 9.04123 19.3899 9.08126 19.4099 9.1212C19.4199 9.16123 19.4299 9.20126 19.4299 9.2412V10.8712C19.4299 10.9113 19.4099 10.9512 19.3799 10.9713C19.2899 10.9912 19.2399 10.9912 19.1999 10.9713Z" fill="white"/>
</svg>
