<svg width="24" height="24" viewBox="0 0 24 24" fill="none" xmlns="http://www.w3.org/2000/svg">
<path d="M11 20H3C2.71667 20 2.47934 19.904 2.288 19.712C2.09667 19.52 2.00067 19.2827 2 19C1.99934 18.7173 2.09534 18.48 2.288 18.288C2.48067 18.096 2.718 18 3 18H11C11.2833 18 11.521 18.096 11.713 18.288C11.905 18.48 12.0007 18.7173 12 19C11.9993 19.2827 11.9033 19.5203 11.712 19.713C11.5207 19.9057 11.2833 20.0013 11 20ZM5 17C4.45 17 3.97934 16.8043 3.588 16.413C3.19667 16.0217 3.00067 15.5507 3 15V6C3 5.45 3.196 4.97933 3.588 4.588C3.98 4.19667 4.45067 4.00067 5 4H19C19.55 4 20.021 4.196 20.413 4.588C20.805 4.98 21.0007 5.45067 21 6H15.5C14.5333 6 13.7083 6.34167 13.025 7.025C12.3417 7.70833 12 8.53333 12 9.5V16C12 16.2833 11.904 16.521 11.712 16.713C11.52 16.905 11.2827 17.0007 11 17H5ZM15.5 20C15.0833 20 14.7293 19.8543 14.438 19.563C14.1467 19.2717 14.0007 18.9173 14 18.5V9.5C14 9.08333 14.146 8.72933 14.438 8.438C14.73 8.14667 15.084 8.00067 15.5 8H20.5C20.9167 8 21.271 8.146 21.563 8.438C21.855 8.73 22.0007 9.084 22 9.5V18.5C22 18.9167 21.8543 19.271 21.563 19.563C21.2717 19.855 20.9173 20.0007 20.5 20H15.5ZM18 12.5C18.2167 12.5 18.396 12.425 18.538 12.275C18.68 12.125 18.7507 11.95 18.75 11.75C18.75 11.5333 18.679 11.3543 18.537 11.213C18.395 11.0717 18.216 11.0007 18 11C17.8 11 17.625 11.071 17.475 11.213C17.325 11.355 17.25 11.534 17.25 11.75C17.25 11.95 17.325 12.125 17.475 12.275C17.625 12.425 17.8 12.5 18 12.5Z" fill="black"/>
</svg>
