<svg width="24" height="24" viewBox="0 0 24 24" fill="none" xmlns="http://www.w3.org/2000/svg">
<path d="M7.6212 5.125C7.24645 5.125 6.99662 5.5 6.99662 5.75V8.875H5.74746V5.75C5.74746 5.375 5.49763 5.125 5.12289 5.125C4.74814 5.125 4.49831 5.5 4.49831 5.75V8.875H3.24915V5.75C3.24915 5.375 2.99932 5.125 2.62458 5.125C2.24983 5.125 2 5.5 2 5.75V9.875C2 11 2.87441 11.875 3.87373 12V20.75C3.87373 21.5 4.37339 22 5.12289 22C5.87238 22 6.37204 21.5 6.37204 20.75V12C7.37137 11.875 8.24577 11 8.24577 9.875V5.75C8.24577 5.5 7.99594 5.125 7.6212 5.125ZM10.1195 5.75V13.25H11.3687V20.75C11.3687 21.5 11.8683 22 12.6178 22C13.3673 22 13.867 21.5 13.867 20.75V2C11.7434 2 10.1195 3.625 10.1195 5.75ZM18.8636 4.5C17.1148 4.5 15.7407 6.375 15.7407 8.625C15.6158 10.125 16.3653 11.5 17.6144 12.375V20.75C17.6144 21.5 18.1141 22 18.8636 22C19.6131 22 20.1127 21.5 20.1127 20.75V12.375C21.3619 11.5 22.1114 10.125 21.9865 8.625C21.9865 6.375 20.6124 4.5 18.8636 4.5Z" fill="black"/>
</svg>
