<svg width="24" height="24" viewBox="0 0 24 24" fill="none" xmlns="http://www.w3.org/2000/svg">
<path d="M12.0003 7.13101C11.3609 7.13101 10.7278 7.25695 10.1371 7.50164C9.54633 7.74633 9.00957 8.10498 8.55745 8.55711C8.10532 9.00924 7.74667 9.54599 7.50198 10.1367C7.25729 10.7275 7.13135 11.3606 7.13135 12C7.13135 12.6394 7.25729 13.2726 7.50198 13.8633C7.74667 14.454 8.10532 14.9908 8.55745 15.4429C9.00957 15.895 9.54633 16.2537 10.1371 16.4984C10.7278 16.7431 11.3609 16.869 12.0003 16.869C13.2917 16.869 14.5301 16.356 15.4433 15.4429C16.3564 14.5298 16.8693 13.2914 16.8693 12C16.8693 10.7087 16.3564 9.47022 15.4433 8.55711C14.5301 7.64399 13.2917 7.13101 12.0003 7.13101ZM8.63135 12C8.63135 11.1065 8.9863 10.2496 9.61811 9.61777C10.2499 8.98596 11.1068 8.63101 12.0003 8.63101C12.8939 8.63101 13.7508 8.98596 14.3826 9.61777C15.0144 10.2496 15.3693 11.1065 15.3693 12C15.3693 12.8935 15.0144 13.7504 14.3826 14.3823C13.7508 15.0141 12.8939 15.369 12.0003 15.369C11.1068 15.369 10.2499 15.0141 9.61811 14.3823C8.9863 13.7504 8.63135 12.8935 8.63135 12Z" fill="black"/>
<path d="M14.6942 2.01451C13.9037 -0.670487 10.0967 -0.670487 9.30623 2.01451L9.16523 2.49301C9.11002 2.68044 9.01357 2.85314 8.88295 2.99845C8.75233 3.14376 8.59085 3.258 8.41034 3.33279C8.22983 3.40758 8.03487 3.44103 7.83976 3.43069C7.64464 3.42035 7.45431 3.36647 7.28273 3.27301L6.84473 3.03301C4.38473 1.69501 1.69523 4.38601 3.03473 6.84451L3.27323 7.28251C3.36668 7.4541 3.42056 7.64443 3.4309 7.83954C3.44125 8.03466 3.4078 8.22962 3.333 8.41012C3.25821 8.59063 3.14397 8.75212 2.99866 8.88274C2.85335 9.01336 2.68065 9.10981 2.49323 9.16501L2.01473 9.30601C-0.670273 10.0965 -0.670273 13.9035 2.01473 14.694L2.49323 14.835C2.68065 14.8902 2.85335 14.9867 2.99866 15.1173C3.14397 15.2479 3.25821 15.4094 3.333 15.5899C3.4078 15.7704 3.44125 15.9654 3.4309 16.1605C3.42056 16.3556 3.36668 16.5459 3.27323 16.7175L3.03323 17.1555C1.69523 19.6155 4.38473 22.3065 6.84473 20.9655L7.28273 20.727C7.45431 20.6336 7.64464 20.5797 7.83976 20.5693C8.03487 20.559 8.22983 20.5924 8.41034 20.6672C8.59085 20.742 8.75233 20.8563 8.88295 21.0016C9.01357 21.1469 9.11002 21.3196 9.16523 21.507L9.30623 21.9855C10.0967 24.6705 13.9037 24.6705 14.6942 21.9855L14.8352 21.507C14.8904 21.3196 14.9869 21.1469 15.1175 21.0016C15.2481 20.8563 15.4096 20.742 15.5901 20.6672C15.7706 20.5924 15.9656 20.559 16.1607 20.5693C16.3558 20.5797 16.5461 20.6336 16.7177 20.727L17.1557 20.967C19.6157 22.3065 22.3067 19.614 20.9657 17.1555L20.7272 16.7175C20.6338 16.5459 20.5799 16.3556 20.5696 16.1605C20.5592 15.9654 20.5927 15.7704 20.6674 15.5899C20.7422 15.4094 20.8565 15.2479 21.0018 15.1173C21.1471 14.9867 21.3198 14.8902 21.5072 14.835L21.9857 14.694C24.6707 13.9035 24.6707 10.0965 21.9857 9.30601L21.5072 9.16501C21.3198 9.10981 21.1471 9.01336 21.0018 8.88274C20.8565 8.75212 20.7422 8.59063 20.6674 8.41012C20.5927 8.22962 20.5592 8.03466 20.5696 7.83954C20.5799 7.64443 20.6338 7.4541 20.7272 7.28251L20.9672 6.84451C22.3067 4.38451 19.6142 1.69501 17.1557 3.03451L16.7177 3.27301C16.5461 3.36647 16.3558 3.42035 16.1607 3.43069C15.9656 3.44103 15.7706 3.40758 15.5901 3.33279C15.4096 3.258 15.2481 3.14376 15.1175 2.99845C14.9869 2.85314 14.8904 2.68044 14.8352 2.49301L14.6942 2.01451ZM10.7447 2.43901C11.1137 1.18651 12.8867 1.18651 13.2557 2.43901L13.3967 2.91751C13.5153 3.31964 13.7223 3.69014 14.0026 4.00186C14.283 4.31358 14.6295 4.55861 15.0168 4.71898C15.4042 4.87936 15.8225 4.95101 16.2411 4.9287C16.6598 4.90638 17.0681 4.79066 17.4362 4.59001L17.8727 4.35001C19.0187 3.72751 20.2727 4.98001 19.6487 6.12751L19.4102 6.56551C19.2099 6.93365 19.0944 7.34195 19.0724 7.7605C19.0503 8.17904 19.1221 8.59722 19.2827 8.98439C19.4432 9.37156 19.6883 9.71792 20 9.99808C20.3117 10.2782 20.6822 10.4851 21.0842 10.6035L21.5612 10.7445C22.8137 11.1135 22.8137 12.8865 21.5612 13.2555L21.0827 13.3965C20.6806 13.515 20.3101 13.7221 19.9984 14.0024C19.6867 14.2827 19.4416 14.6293 19.2813 15.0166C19.1209 15.404 19.0492 15.8223 19.0715 16.2409C19.0939 16.6596 19.2096 17.0679 19.4102 17.436L19.6502 17.8725C20.2727 19.0185 19.0202 20.2725 17.8727 19.6485L17.4362 19.41C17.068 19.2094 16.6596 19.0937 16.2409 19.0715C15.8221 19.0493 15.4038 19.1211 15.0164 19.2816C14.629 19.4421 14.2825 19.6873 14.0022 19.9992C13.722 20.3111 13.5151 20.6818 13.3967 21.084L13.2557 21.561C12.8867 22.8135 11.1137 22.8135 10.7447 21.561L10.6037 21.0825C10.4851 20.6806 10.2782 20.3103 9.99792 19.9987C9.71769 19.6872 9.37131 19.4422 8.98416 19.2819C8.59701 19.1215 8.17889 19.0498 7.76043 19.072C7.34197 19.0942 6.93377 19.2096 6.56573 19.41L6.12773 19.65C4.98173 20.2725 3.72773 19.02 4.35173 17.8725L4.59023 17.436C4.79115 17.0679 4.9071 16.6594 4.92957 16.2406C4.95203 15.8217 4.88044 15.4032 4.72004 15.0157C4.55965 14.6281 4.31452 14.2814 4.00264 14.001C3.69077 13.7205 3.32006 13.5135 2.91773 13.395L2.43923 13.254C1.18673 12.885 1.18673 11.112 2.43923 10.743L2.91773 10.602C3.31944 10.4834 3.68954 10.2764 4.00094 9.9963C4.31234 9.71617 4.55717 9.36996 4.71751 8.983C4.87784 8.59604 4.94962 8.17812 4.9276 7.75984C4.90558 7.34156 4.79031 6.9335 4.59023 6.56551L4.35023 6.12751C3.72773 4.98151 4.98023 3.72751 6.12773 4.35151L6.56573 4.59001C6.93377 4.79038 7.34197 4.90587 7.76043 4.92804C8.17889 4.95021 8.59701 4.87849 8.98416 4.71814C9.37131 4.55778 9.71769 4.31285 9.99792 4.00129C10.2782 3.68973 10.4851 3.31943 10.6037 2.91751L10.7447 2.43901Z" fill="black"/>
</svg>
