<svg width="24" height="24" viewBox="0 0 24 24" fill="none" xmlns="http://www.w3.org/2000/svg">
<path d="M20.1272 0.377243L18.8308 0.458055L18.9318 3.15374C18.9371 3.30281 18.7652 3.38981 18.648 3.29737L17.7798 2.61299L16.7514 3.39337C16.7249 3.41348 16.6933 3.42563 16.6601 3.42841C16.627 3.43119 16.5938 3.42448 16.5643 3.40906C16.5348 3.39364 16.5104 3.37015 16.4938 3.34134C16.4772 3.31253 16.4691 3.27959 16.4705 3.24637L16.5862 0.598305L3.72597 1.40249C3.42006 1.42155 3.13371 1.55945 2.92807 1.78674C2.72243 2.01403 2.61379 2.3127 2.62535 2.61899L3.3491 21.9011C3.36015 22.1957 3.48159 22.4754 3.68931 22.6846C3.89702 22.8938 4.17583 23.0173 4.47035 23.0304L20.1476 23.7343C20.3061 23.7413 20.4643 23.7162 20.6129 23.6605C20.7614 23.6047 20.8971 23.5195 21.0118 23.4099C21.1264 23.3003 21.2177 23.1686 21.2801 23.0227C21.3424 22.8769 21.3747 22.7199 21.3748 22.5613V1.54949C21.3748 1.38906 21.342 1.23031 21.2783 1.08306C21.2146 0.935815 21.1214 0.803186 21.0045 0.693368C20.8876 0.58353 20.7494 0.498811 20.5986 0.44444C20.4477 0.390069 20.2872 0.367199 20.1272 0.377243ZM12.3534 4.3498C15.4112 4.3498 17.081 5.98537 17.081 9.09712C16.6678 9.41831 13.5898 9.63712 13.5898 9.18018C13.6547 7.43643 12.8741 7.36012 12.4404 7.36012C12.0283 7.36012 11.3343 7.48424 11.3343 8.41837C11.3343 10.7224 17.2762 10.5981 17.2762 15.2479C17.2762 17.8635 15.1509 19.3082 12.4404 19.3082C9.64291 19.3082 7.19847 18.1764 7.47447 14.2526C7.58285 13.7919 11.1392 13.9014 11.1392 14.2526C11.096 15.8717 11.4645 16.3479 12.3967 16.3479C13.1124 16.3479 13.4379 15.9536 13.4379 15.2893C13.4379 12.9229 7.58285 12.84 7.58285 8.50162C7.58285 6.01068 9.29604 4.3498 12.3534 4.3498Z" fill="black"/>
</svg>
