<svg width="1620" height="150" viewBox="0 0 1620 150" fill="none" xmlns="http://www.w3.org/2000/svg">
<path d="M1620 150H0V66.3361L44.6368 47.958C44.6368 47.958 89.2736 30.8051 151.044 25.0292C212.814 19.2532 275.035 25.0292 275.035 25.0292C275.035 25.0292 366.112 27.6546 453.131 36.4061C540.15 45.1575 715.992 60.5601 715.992 60.5601C715.992 60.5601 815.185 72.9872 844.943 72.9872C874.701 72.9872 961.269 77.0128 1062.72 66.3361C1164.16 55.6593 1222.88 51.4267 1320.62 36.4061C1378.93 27.4441 1406.78 17.6873 1466.7 10.5018C1524.79 3.53702 1620 0 1620 0V150Z" fill="#F6E5DC"/>
</svg>
