<svg width="24" height="24" viewBox="0 0 24 24" fill="none" xmlns="http://www.w3.org/2000/svg">
<path d="M12 16C13.6569 16 15 14.6569 15 13C15 11.3431 13.6569 10 12 10C10.3431 10 9 11.3431 9 13C9 14.6569 10.3431 16 12 16Z" stroke="black" stroke-width="1.5"/>
<path d="M2 13.364C2 10.299 2 8.76699 2.749 7.66699C3.07457 7.18898 3.49118 6.77984 3.975 6.46299C4.695 5.98999 5.597 5.82099 6.978 5.76099C7.637 5.76099 8.204 5.27099 8.333 4.63599C8.43158 4.17085 8.68773 3.75402 9.05815 3.45594C9.42857 3.15785 9.89055 2.99679 10.366 2.99999H13.634C14.622 2.99999 15.473 3.68499 15.667 4.63599C15.796 5.27099 16.363 5.76099 17.022 5.76099C18.402 5.82099 19.304 5.99099 20.025 6.46299C20.51 6.78099 20.927 7.18999 21.251 7.66699C22 8.76699 22 10.299 22 13.364C22 16.429 22 17.96 21.251 19.061C20.9254 19.539 20.5088 19.9481 20.025 20.265C18.904 21 17.343 21 14.222 21H9.778C6.657 21 5.096 21 3.975 20.265C3.49144 19.9477 3.07517 19.5383 2.75 19.06C2.53274 18.7364 2.37274 18.3778 2.277 18M19 9.99999H18" stroke="black" stroke-width="1.5" stroke-linecap="round"/>
</svg>
