<svg width="24" height="24" viewBox="0 0 24 24" fill="none" xmlns="http://www.w3.org/2000/svg">
<path d="M8.7 9.18751C8.95714 8.95782 9.03214 8.94845 10.65 8.94845C12.1071 8.94845 12.1554 8.95313 12.3696 9.04688C12.6804 9.18282 12.8143 9.37501 12.8143 9.68438C12.8143 9.96095 12.6857 10.1531 12.4071 10.3125C12.2571 10.3969 12.1661 10.4016 10.7411 10.4109C9.8625 10.4156 9.16071 10.4016 9.05357 10.3734C8.50179 10.2375 8.29821 9.54376 8.7 9.18751ZM11.9893 13.6172C9.10179 13.6172 9 13.6266 8.76429 13.8094C8.57679 13.9547 8.45893 14.25 8.49107 14.4609C8.52857 14.6813 8.74821 14.9344 8.98393 15.0234C9.10179 15.0703 9.73929 15.1031 12 15.0797L14.5661 15.0516L15.0589 14.9813C15.5411 14.7422 15.6214 14.1656 15.225 13.8375C14.9411 13.6172 14.9571 13.6172 11.9893 13.6172ZM23.9571 19.7156C23.7696 21.0469 22.725 22.0781 21.2196 22.4109C20.8339 22.4953 20.7 22.5 11.9571 22.4953C3.50357 22.4953 3.06964 22.4906 2.74286 22.4109C2.29286 22.3078 1.90714 22.1531 1.54821 21.9422C1.24821 21.7641 0.803571 21.3891 0.6375 21.1734C0.433929 20.9109 0.198214 20.4563 0.101786 20.1422C0.00535714 19.8281 0 19.7016 0 12.0141C0 4.36876 0 4.2047 0.0964286 3.87188C0.433929 2.71407 1.48393 1.82813 2.83929 1.56563C3.23036 1.49063 20.6304 1.47657 21.0536 1.55157C22.1893 1.75313 23.0839 2.35313 23.6036 3.25782C24.0161 3.97501 23.9786 3.18751 23.9946 11.7234C24.0054 17.1516 23.9946 19.4344 23.9571 19.7156ZM19.3821 11.0344C19.3232 10.8 19.1571 10.5844 18.9696 10.4953C18.9107 10.4672 18.5411 10.4344 18.1393 10.4156C17.475 10.3875 17.4 10.3781 17.1857 10.2703C16.8536 10.1016 16.7625 9.91407 16.7571 9.41251C16.7571 8.45626 16.3018 7.56563 15.4018 6.76407C14.7589 6.1922 14.0464 5.80313 13.2268 5.58751C13.0339 5.53595 12.5946 5.5172 11.1268 5.50313C8.82857 5.4797 8.31429 5.52188 7.53214 5.79376C6.08571 6.29532 5.05179 7.35938 4.67143 8.71876C4.60179 8.97188 4.58571 9.38438 4.56964 11.7328C4.54821 14.6766 4.56964 15.1125 4.78393 15.6938C5.30357 17.1328 6.77143 18.1969 8.24464 18.4313C8.7375 18.5109 14.7911 18.5297 15.4071 18.4547C16.4839 18.3281 17.3304 17.9484 18.1232 17.2406C18.6964 16.7297 19.0554 16.1719 19.2911 15.4359C19.4625 14.925 19.4464 11.2922 19.3821 11.0344Z" fill="black"/>
</svg>
